<svg width="607" height="191" viewBox="0 0 607 191" fill="none" xmlns="http://www.w3.org/2000/svg">
<path d="M137.027 111.665C155.863 101.097 179.695 107.64 190.494 126.345L174.242 135.728C155.32 146.652 131.119 140.033 120.392 120.998L137.027 111.665Z" fill="#FF6665"/>
<path d="M130.136 104.256C140.896 85.619 164.728 79.2333 183.365 89.9936L173.624 106.867C162.863 125.504 139.032 131.89 120.395 121.129L130.136 104.256Z" fill="#FF6665" fill-opacity="0.8"/>
<path d="M119.552 102.451C119.552 79.8473 137.876 61.5234 160.479 61.5234V80.6228C160.479 103.226 142.155 121.55 119.552 121.55V102.451Z" fill="#FF6665" fill-opacity="0.8"/>
<path d="M109.896 103.229C99.1357 84.5919 105.521 60.7603 124.159 50L133.9 66.873C144.661 85.5104 138.275 109.342 119.638 120.102L109.896 103.229Z" fill="#FF6665" fill-opacity="0.8"/>
<path d="M119.552 99.7223C119.552 78.6257 102.45 61.5234 81.3535 61.5234V83.3513C81.3535 104.448 98.4557 121.55 119.552 121.55V99.7223Z" fill="#FF6665" fill-opacity="0.8"/>
<path d="M111.33 104.256C100.57 85.619 76.738 79.2333 58.1006 89.9936L67.8422 106.867C78.6025 125.504 102.434 131.89 121.071 121.129L111.33 104.256Z" fill="#FF6665" fill-opacity="0.8"/>
<path d="M104.438 111.665C85.6025 101.097 61.7706 107.64 50.9717 126.345L67.2233 135.728C86.1457 146.652 110.347 140.033 121.074 120.998L104.438 111.665Z" fill="#FF6665"/>
<path d="M259.945 76.2117V118.511H251.461V90.9985L240.128 118.511H233.704L222.311 90.9985V118.511H213.827V76.2117H223.463L236.916 107.664L250.37 76.2117H259.945Z" fill="black"/>
<path d="M270.212 80.9386C268.717 80.9386 267.464 80.474 266.454 79.5448C265.485 78.5752 265 77.3833 265 75.9693C265 74.5553 265.485 73.3837 266.454 72.4544C267.464 71.4848 268.717 71 270.212 71C271.706 71 272.939 71.4848 273.908 72.4544C274.918 73.3837 275.423 74.5553 275.423 75.9693C275.423 77.3833 274.918 78.5752 273.908 79.5448C272.939 80.474 271.706 80.9386 270.212 80.9386ZM274.393 84.9383V118.511H265.909V84.9383H274.393Z" fill="black"/>
<path d="M298.956 84.4535C302.956 84.4535 306.188 85.7261 308.652 88.2714C311.117 90.7763 312.349 94.2911 312.349 98.816V118.511H303.865V99.9675C303.865 97.301 303.198 95.2608 301.865 93.8467C300.532 92.3923 298.714 91.6651 296.411 91.6651C294.067 91.6651 292.209 92.3923 290.835 93.8467C289.502 95.2608 288.836 97.301 288.836 99.9675V118.511H280.351V84.9383H288.836V89.1198C289.967 87.6654 291.401 86.5342 293.138 85.7261C294.916 84.8777 296.855 84.4535 298.956 84.4535Z" fill="black"/>
<path d="M315.811 101.604C315.811 98.21 316.478 95.2002 317.811 92.5741C319.185 89.948 321.043 87.928 323.386 86.514C325.73 85.0999 328.336 84.3929 331.204 84.3929C333.386 84.3929 335.466 84.8777 337.446 85.8473C339.426 86.7766 341.001 88.029 342.173 89.6046V73.6665H350.778V118.511H342.173V113.542C341.122 115.199 339.648 116.532 337.749 117.542C335.85 118.552 333.648 119.057 331.143 119.057C328.315 119.057 325.73 118.33 323.386 116.875C321.043 115.421 319.185 113.381 317.811 110.755C316.478 108.088 315.811 105.038 315.811 101.604ZM342.233 101.725C342.233 99.6645 341.829 97.907 341.021 96.4526C340.213 94.9577 339.123 93.8265 337.749 93.0589C336.375 92.2509 334.901 91.8469 333.325 91.8469C331.749 91.8469 330.295 92.2307 328.962 92.9983C327.628 93.7659 326.538 94.8971 325.689 96.392C324.881 97.8464 324.477 99.5837 324.477 101.604C324.477 103.624 324.881 105.401 325.689 106.937C326.538 108.431 327.628 109.583 328.962 110.391C330.335 111.199 331.79 111.603 333.325 111.603C334.901 111.603 336.375 111.219 337.749 110.451C339.123 109.643 340.213 108.512 341.021 107.058C341.829 105.563 342.233 103.785 342.233 101.725Z" fill="black"/>
<path d="M372.033 91.9075H366.155V118.511H357.549V91.9075H353.732V84.9383H357.549V83.2415C357.549 79.1206 358.721 76.0905 361.064 74.1513C363.408 72.212 366.943 71.303 371.67 71.4242V78.5752C369.609 78.5348 368.175 78.8782 367.367 79.6054C366.559 80.3326 366.155 81.6456 366.155 83.5445V84.9383H372.033V91.9075Z" fill="black"/>
<path d="M406.802 84.9383V118.511H398.257V114.269C397.166 115.724 395.732 116.875 393.954 117.724C392.217 118.532 390.318 118.936 388.258 118.936C385.632 118.936 383.309 118.39 381.289 117.299C379.269 116.168 377.673 114.532 376.501 112.391C375.37 110.209 374.804 107.623 374.804 104.634V84.9383H383.288V103.422C383.288 106.088 383.955 108.149 385.288 109.603C386.622 111.017 388.44 111.724 390.742 111.724C393.086 111.724 394.924 111.017 396.257 109.603C397.59 108.149 398.257 106.088 398.257 103.422V84.9383H406.802Z" fill="black"/>
<path d="M421.233 73.6665V118.511H412.749V73.6665H421.233Z" fill="black"/>
<path d="M445.796 84.4535C449.796 84.4535 453.028 85.7261 455.492 88.2714C457.957 90.7763 459.189 94.2911 459.189 98.816V118.511H450.705V99.9675C450.705 97.301 450.038 95.2608 448.705 93.8467C447.372 92.3923 445.554 91.6651 443.251 91.6651C440.907 91.6651 439.049 92.3923 437.675 93.8467C436.342 95.2608 435.676 97.301 435.676 99.9675V118.511H427.191V84.9383H435.676V89.1198C436.807 87.6654 438.241 86.5342 439.978 85.7261C441.756 84.8777 443.695 84.4535 445.796 84.4535Z" fill="black"/>
<path d="M496.043 100.998C496.043 102.21 495.962 103.301 495.8 104.27H471.257C471.459 106.694 472.307 108.593 473.802 109.967C475.297 111.34 477.135 112.027 479.317 112.027C482.468 112.027 484.71 110.674 486.043 107.967H495.194C494.225 111.199 492.366 113.865 489.619 115.966C486.872 118.027 483.498 119.057 479.498 119.057C476.266 119.057 473.357 118.35 470.772 116.936C468.227 115.481 466.227 113.441 464.772 110.815C463.358 108.189 462.651 105.159 462.651 101.725C462.651 98.2504 463.358 95.2002 464.772 92.5741C466.186 89.948 468.166 87.928 470.711 86.514C473.256 85.0999 476.186 84.3929 479.498 84.3929C482.69 84.3929 485.538 85.0797 488.043 86.4534C490.588 87.827 492.548 89.7864 493.922 92.3317C495.336 94.8365 496.043 97.7252 496.043 100.998ZM487.255 98.5736C487.215 96.392 486.427 94.6547 484.892 93.3619C483.357 92.0287 481.478 91.3621 479.256 91.3621C477.155 91.3621 475.377 92.0085 473.923 93.3013C472.509 94.5537 471.64 96.3112 471.317 98.5736H487.255Z" fill="black"/>
<path d="M512.659 119.057C509.911 119.057 507.447 118.572 505.265 117.602C503.084 116.592 501.346 115.239 500.054 113.542C498.801 111.845 498.114 109.967 497.993 107.906H506.538C506.7 109.199 507.326 110.27 508.417 111.118C509.548 111.967 510.942 112.391 512.598 112.391C514.214 112.391 515.467 112.068 516.355 111.421C517.285 110.775 517.749 109.946 517.749 108.936C517.749 107.846 517.184 107.038 516.052 106.512C514.962 105.947 513.204 105.341 510.78 104.694C508.275 104.088 506.215 103.462 504.599 102.816C503.023 102.169 501.649 101.179 500.478 99.8463C499.347 98.513 498.781 96.7152 498.781 94.4527C498.781 92.5943 499.306 90.8975 500.357 89.3622C501.447 87.827 502.983 86.615 504.962 85.7261C506.982 84.8373 509.346 84.3929 512.053 84.3929C516.052 84.3929 519.244 85.4029 521.628 87.423C524.011 89.4026 525.324 92.0893 525.567 95.483H517.446C517.325 94.1497 516.759 93.0993 515.749 92.3317C514.78 91.5237 513.467 91.1197 511.81 91.1197C510.275 91.1197 509.083 91.4025 508.235 91.9681C507.427 92.5337 507.023 93.3215 507.023 94.3315C507.023 95.4628 507.588 96.3314 508.72 96.9374C509.851 97.503 511.608 98.0888 513.992 98.6948C516.416 99.3008 518.416 99.9271 519.991 100.573C521.567 101.22 522.921 102.23 524.052 103.604C525.223 104.937 525.829 106.714 525.87 108.936C525.87 110.876 525.324 112.613 524.234 114.148C523.183 115.683 521.648 116.895 519.628 117.784C517.648 118.633 515.325 119.057 512.659 119.057Z" fill="black"/>
<path d="M543.258 119.057C540.51 119.057 538.046 118.572 535.864 117.602C533.683 116.592 531.945 115.239 530.653 113.542C529.4 111.845 528.713 109.967 528.592 107.906H537.137C537.299 109.199 537.925 110.27 539.016 111.118C540.147 111.967 541.541 112.391 543.197 112.391C544.813 112.391 546.066 112.068 546.954 111.421C547.884 110.775 548.348 109.946 548.348 108.936C548.348 107.846 547.783 107.038 546.651 106.512C545.56 105.947 543.803 105.341 541.379 104.694C538.874 104.088 536.814 103.462 535.198 102.816C533.622 102.169 532.248 101.179 531.077 99.8463C529.946 98.513 529.38 96.7152 529.38 94.4527C529.38 92.5943 529.905 90.8975 530.956 89.3622C532.046 87.827 533.582 86.615 535.561 85.7261C537.581 84.8373 539.945 84.3929 542.652 84.3929C546.651 84.3929 549.843 85.4029 552.227 87.423C554.61 89.4026 555.923 92.0893 556.166 95.483H548.045C547.924 94.1497 547.358 93.0993 546.348 92.3317C545.379 91.5237 544.066 91.1197 542.409 91.1197C540.874 91.1197 539.682 91.4025 538.834 91.9681C538.026 92.5337 537.622 93.3215 537.622 94.3315C537.622 95.4628 538.187 96.3314 539.319 96.9374C540.45 97.503 542.207 98.0888 544.591 98.6948C547.015 99.3008 549.015 99.9271 550.59 100.573C552.166 101.22 553.52 102.23 554.651 103.604C555.822 104.937 556.428 106.714 556.469 108.936C556.469 110.876 555.923 112.613 554.833 114.148C553.782 115.683 552.247 116.895 550.227 117.784C548.247 118.633 545.924 119.057 543.258 119.057Z" fill="black"/>
</svg>
